<svg xmlns="http://www.w3.org/2000/svg" xlink="http://www.w3.org/1999/xlink" width="0" height="0" style="display:none;"><symbol viewBox="0 0 24 24" id="heart-line"><path fill="none" d="M0 0H24V24H0z"/><path d="M12.001 4.529c2.349-2.109 5.979-2.039 8.242.228 2.262 2.268 2.34 5.88.236 8.236l-8.48 8.492-8.478-8.492c-2.104-2.356-2.025-5.974.236-8.236 2.265-2.264 5.888-2.34 8.244-.228zm6.826 1.641c-1.5-1.502-3.92-1.563-5.49-.153l-1.335 1.198-1.336-1.197c-1.575-1.412-3.99-1.35-5.494.154-1.49 1.49-1.565 3.875-.192 5.451L12 18.654l7.02-7.03c1.374-1.577 1.299-3.959-.193-5.454z"/></symbol><symbol viewBox="0 0 24 24" id="heart-2-line"><path fill="none" d="M0 0H24V24H0z"/><path d="M20.243 4.757c2.262 2.268 2.34 5.88.236 8.236l-8.48 8.492-8.478-8.492c-2.104-2.356-2.025-5.974.236-8.236 2.265-2.264 5.888-2.34 8.244-.228 2.349-2.109 5.979-2.039 8.242.228zM5.172 6.172c-1.49 1.49-1.565 3.875-.192 5.451L12 18.654l7.02-7.03c1.374-1.577 1.299-3.959-.193-5.454-1.487-1.49-3.881-1.562-5.453-.186l-4.202 4.203-1.415-1.414 2.825-2.827-.082-.069c-1.575-1.265-3.877-1.157-5.328.295z"/></symbol><symbol viewBox="0 0 24 24" id="heart-3-line"><path fill="none" d="M0 0H24V24H0z"/><path d="M16.5 3C19.538 3 22 5.5 22 9c0 7-7.5 11-10 12.5C9.5 20 2 16 2 9c0-3.5 2.5-6 5.5-6C9.36 3 11 4 12 5c1-1 2.64-2 4.5-2zm-3.566 15.604c.881-.556 1.676-1.109 2.42-1.701C18.335 14.533 20 11.943 20 9c0-2.36-1.537-4-3.5-4-1.076 0-2.24.57-3.086 1.414L12 7.828l-1.414-1.414C9.74 5.57 8.576 5 7.5 5 5.56 5 4 6.656 4 9c0 2.944 1.666 5.533 4.645 7.903.745.592 1.54 1.145 2.421 1.7.299.189.595.37.934.572.339-.202.635-.383.934-.571z"/></symbol><symbol viewBox="0 0 24 24" id="heart-add-line"><path fill="none" d="M0 0H24V24H0z"/><path d="M19 14v3h3v2h-3.001L19 22h-2l-.001-3H14v-2h3v-3h2zm1.243-9.243c2.262 2.268 2.34 5.88.236 8.235l-1.42-1.418c1.331-1.524 1.261-3.914-.232-5.404-1.503-1.499-3.92-1.563-5.49-.153l-1.335 1.198-1.336-1.197c-1.575-1.412-3.991-1.35-5.494.154-1.49 1.49-1.565 3.875-.192 5.451l8.432 8.446L12 21.485 3.52 12.993c-2.104-2.356-2.025-5.974.236-8.236 2.265-2.264 5.888-2.34 8.244-.228 2.349-2.109 5.979-2.039 8.242.228z"/></symbol><symbol viewBox="0 0 24 24" id="dislike-line"><path fill="none" d="M0 0H24V24H0z"/><path d="M2.808 1.393l18.384 18.385-1.414 1.414-3.747-3.747L12 21.485 3.52 12.993c-2.04-2.284-2.028-5.753.034-8.023L1.393 2.808l1.415-1.415zm2.172 10.23L12 18.654l2.617-2.623-9.645-9.645c-1.294 1.497-1.3 3.735.008 5.237zm15.263-6.866c2.262 2.268 2.34 5.88.236 8.236l-1.635 1.636-1.414-1.414 1.59-1.592c1.374-1.576 1.299-3.958-.193-5.453-1.5-1.502-3.92-1.563-5.49-.153l-1.335 1.198-1.336-1.197c-.35-.314-.741-.555-1.155-.723l-2.25-2.25c1.668-.206 3.407.289 4.74 1.484 2.349-2.109 5.979-2.039 8.242.228z"/></symbol><symbol viewBox="0 0 24 24" id="hearts-line"><path fill="none" d="M0 0H24V24H0z"/><path d="M19.243 4.757c1.462 1.466 2.012 3.493 1.65 5.38.568.16 1.106.463 1.554.908 1.404 1.394 1.404 3.654 0 5.047L17 21.5l-3.022-3L11 21.485 2.52 12.993C.417 10.637.496 7.019 2.757 4.757c2.265-2.264 5.888-2.34 8.244-.228 2.349-2.109 5.979-2.039 8.242.228zm-6.281 7.708c-.616.611-.616 1.597 0 2.208L17 18.682l4.038-4.009c.616-.611.616-1.597 0-2.208-.624-.62-1.642-.62-2.268.002l-1.772 1.754-1.407-1.396-.363-.36c-.624-.62-1.642-.62-2.266 0zm-8.79-6.293c-1.49 1.49-1.565 3.875-.192 5.451L11 18.654l1.559-1.562-1.006-1c-1.404-1.393-1.404-3.653 0-5.047 1.404-1.393 3.68-1.393 5.084 0l.363.36.363-.36c.425-.421.93-.715 1.465-.882.416-1.367.078-2.912-1.001-3.993-1.5-1.502-3.92-1.563-5.49-.153l-1.335 1.198-1.336-1.197c-1.575-1.412-3.99-1.35-5.494.154z"/></symbol><symbol viewBox="0 0 24 24" id="heart-pulse-line"><path fill="none" d="M0 0H24V24H0z"/><path d="M16.5 3C19.538 3 22 5.5 22 9c0 7-7.5 11-10 12.5-1.977-1.186-7.083-3.937-9.131-8.499L1 13v-2h1.21C2.074 10.364 2 9.698 2 9c0-3.5 2.5-6 5.5-6C9.36 3 11 4 12 5c1-1 2.64-2 4.5-2zm0 2c-1.076 0-2.24.57-3.086 1.414L12 7.828l-1.414-1.414C9.74 5.57 8.576 5 7.5 5 5.56 5 4 6.656 4 9c0 .685.09 1.352.267 2h2.167L8.5 7.556l3 5L12.434 11H17v2h-3.434L11.5 16.444l-3-5L7.566 13H5.108c.79 1.374 1.985 2.668 3.537 3.903.745.592 1.54 1.145 2.421 1.7.299.189.595.37.934.572.339-.202.635-.383.934-.571.881-.556 1.676-1.109 2.42-1.701C18.335 14.533 20 11.943 20 9c0-2.36-1.537-4-3.5-4z"/></symbol><symbol viewBox="0 0 24 24" id="pulse-line"><path fill="none" d="M0 0H24V24H0z"/><path d="M9 7.539L15 21.539 18.659 13 23 13 23 11 17.341 11 15 16.461 9 2.461 5.341 11 1 11 1 13 6.659 13z"/></symbol><symbol viewBox="0 0 24 24" id="empathize-line"><path fill="none" d="M0 0H24V24H0z"/><path d="M18.364 10.98c1.562 1.561 1.562 4.094 0 5.656l-5.657 5.657c-.39.39-1.024.39-1.414 0l-5.657-5.657c-1.562-1.562-1.562-4.095 0-5.657 1.562-1.562 4.095-1.562 5.657 0l.706.707.708-.707c1.562-1.562 4.095-1.562 5.657 0zM7.05 12.392c-.78.781-.78 2.048 0 2.829l4.95 4.95 4.95-4.95c.78-.781.78-2.048 0-2.829-.781-.78-2.048-.78-2.83.002l-2.122 2.118-2.12-2.12c-.78-.78-2.047-.78-2.828 0zM12 1c2.21 0 4 1.79 4 4s-1.79 4-4 4-4-1.79-4-4 1.79-4 4-4zm0 2c-1.105 0-2 .895-2 2s.895 2 2 2 2-.895 2-2-.895-2-2-2z"/></symbol><symbol viewBox="0 0 24 24" id="nurse-line"><path fill="none" d="M0 0H24V24H0z"/><path d="M12 15c4.08 0 7.446 3.054 7.938 7H4.062c.492-3.946 3.858-7 7.938-7zm-1.813 2.28C8.753 17.734 7.546 18.713 6.8 20H12l-1.813-2.72zm3.627 0L12 20h5.199c-.745-1.287-1.952-2.266-3.385-2.72zM18 2v6c0 3.314-2.686 6-6 6s-6-2.686-6-6V2h12zM8 8c0 2.21 1.79 4 4 4s4-1.79 4-4H8zm8-4H8v2h8V4z"/></symbol><symbol viewBox="0 0 24 24" id="heart-fill"><path fill="none" d="M0 0H24V24H0z"/><path d="M12.001 4.529c2.349-2.109 5.979-2.039 8.242.228 2.262 2.268 2.34 5.88.236 8.236l-8.48 8.492-8.478-8.492c-2.104-2.356-2.025-5.974.236-8.236 2.265-2.264 5.888-2.34 8.244-.228z"/></symbol><symbol viewBox="0 0 24 24" id="heart-2-fill"><path fill="none" d="M0 0H24V24H0z"/><path d="M20.243 4.757c2.262 2.268 2.34 5.88.236 8.236l-8.48 8.492-8.478-8.492c-2.104-2.356-2.025-5.974.236-8.236C5.515 3 8.093 2.56 10.261 3.44L6.343 7.358l1.414 1.415L12 4.53l-.013-.014.014.013c2.349-2.109 5.979-2.039 8.242.228z"/></symbol><symbol viewBox="0 0 24 24" id="heart-3-fill"><path fill="none" d="M0 0H24V24H0z"/><path d="M16.5 3C19.538 3 22 5.5 22 9c0 7-7.5 11-10 12.5C9.5 20 2 16 2 9c0-3.5 2.5-6 5.5-6C9.36 3 11 4 12 5c1-1 2.64-2 4.5-2z"/></symbol><symbol viewBox="0 0 24 24" id="heart-add-fill"><path fill="none" d="M0 0H24V24H0z"/><path d="M19 14v3h3v2h-3v3h-2v-3h-3v-2h3v-3h2zm1.243-9.243c2.16 2.166 2.329 5.557.507 7.91C19.926 12.24 18.99 12 18 12c-3.314 0-6 2.686-6 6 0 1.009.249 1.96.689 2.794l-.69.691-8.478-8.492c-2.104-2.356-2.025-5.974.236-8.236 2.265-2.264 5.888-2.34 8.244-.228 2.349-2.109 5.979-2.039 8.242.228z"/></symbol><symbol viewBox="0 0 24 24" id="dislike-fill"><path fill="none" d="M0 0H24V24H0z"/><path d="M2.808 1.393l18.384 18.385-1.414 1.414-3.747-3.747L12 21.485 3.52 12.993c-2.04-2.284-2.028-5.753.034-8.023L1.393 2.808l1.415-1.415zm17.435 3.364c2.262 2.268 2.34 5.88.236 8.236l-1.635 1.636L7.26 3.046c1.67-.207 3.408.288 4.741 1.483 2.349-2.109 5.979-2.039 8.242.228z"/></symbol><symbol viewBox="0 0 24 24" id="hearts-fill"><path fill="none" d="M0 0H24V24H0z"/><path d="M17.363 11.045c1.404-1.393 3.68-1.393 5.084 0 1.404 1.394 1.404 3.654 0 5.047L17 21.5l-5.447-5.408c-1.404-1.393-1.404-3.653 0-5.047 1.404-1.393 3.68-1.393 5.084 0l.363.36.363-.36zm1.88-6.288c.94.943 1.503 2.118 1.689 3.338-1.333-.248-2.739-.01-3.932.713-2.15-1.303-4.994-1.03-6.856.818-2.131 2.115-2.19 5.515-.178 7.701l.178.185 2.421 2.404L11 21.485 2.52 12.993C.417 10.637.496 7.019 2.757 4.757c2.265-2.264 5.888-2.34 8.244-.228 2.349-2.109 5.979-2.039 8.242.228z"/></symbol><symbol viewBox="0 0 24 24" id="heart-pulse-fill"><path fill="none" d="M0 0H24V24H0z"/><path d="M16.5 3C19.538 3 22 5.5 22 9c0 7-7.5 11-10 12.5-1.978-1.187-7.084-3.937-9.132-8.5h4.698l.934-1.556 3 5L13.566 13H17v-2h-4.566l-.934 1.556-3-5L6.434 11H2.21C2.074 10.363 2 9.696 2 9c0-3.5 2.5-6 5.5-6C9.36 3 11 4 12 5c1-1 2.64-2 4.5-2z"/></symbol><symbol viewBox="0 0 24 24" id="pulse-fill"><path fill="none" d="M0 0H24V24H0z"/><path d="M9 7.539L15 21.539 18.659 13 23 13 23 11 17.341 11 15 16.461 9 2.461 5.341 11 1 11 1 13 6.659 13z"/></symbol><symbol viewBox="0 0 24 24" id="empathize-fill"><path fill="none" d="M0 0H24V24H0z"/><path d="M18.364 10.98c1.562 1.561 1.562 4.094 0 5.656l-5.657 5.657c-.39.39-1.024.39-1.414 0l-5.657-5.657c-1.562-1.562-1.562-4.095 0-5.657 1.562-1.562 4.095-1.562 5.657 0l.706.707.708-.707c1.562-1.562 4.095-1.562 5.657 0zM12 1c2.21 0 4 1.79 4 4s-1.79 4-4 4-4-1.79-4-4 1.79-4 4-4z"/></symbol><symbol viewBox="0 0 24 24" id="nurse-fill"><path fill="none" d="M0 0H24V24H0z"/><path d="M14.956 15.564c2.659 1.058 4.616 3.5 4.982 6.436H4.062c.366-2.936 2.323-5.378 4.982-6.436L12 20l2.956-4.436zM18 2v6c0 3.314-2.686 6-6 6s-6-2.686-6-6V2h12zm-2 6H8c0 2.21 1.79 4 4 4s4-1.79 4-4z"/></symbol><symbol viewBox="0 0 24 24" id="dossier-line"><path fill="none" d="M0 0H24V24H0z"/><path d="M17 2v2h3c.552 0 1 .448 1 1v16c0 .552-.448 1-1 1H4c-.552 0-1-.448-1-1V5c0-.552.448-1 1-1h3V2h10zM7 6H5v14h14V6h-2v2H7V6zm6 5v2h2v2h-2.001L13 17h-2l-.001-2H9v-2h2v-2h2zm2-7H9v2h6V4z"/></symbol><symbol viewBox="0 0 24 24" id="health-book-line"><path fill="none" d="M0 0H24V24H0z"/><path d="M20 2c.552 0 1 .448 1 1v18c0 .552-.448 1-1 1H6c-.552 0-1-.448-1-1v-2H3v-2h2v-2H3v-2h2v-2H3V9h2V7H3V5h2V3c0-.552.448-1 1-1h14zm-1 2H7v16h12V4zm-5 4v3h3v2h-3.001L14 16h-2l-.001-3H9v-2h3V8h2z"/></symbol><symbol viewBox="0 0 24 24" id="first-aid-kit-line"><path fill="none" d="M0 0H24V24H0z"/><path d="M16 1c.552 0 1 .448 1 1v3h4c.552 0 1 .448 1 1v14c0 .552-.448 1-1 1H3c-.552 0-1-.448-1-1V6c0-.552.448-1 1-1h4V2c0-.552.448-1 1-1h8zm4 6H4v12h16V7zm-7 2v3h3v2h-3.001L13 17h-2l-.001-3H8v-2h3V9h2zm2-6H9v2h6V3z"/></symbol><symbol viewBox="0 0 24 24" id="capsule-line"><path fill="none" d="M0 0H24V24H0z"/><path d="M19.778 4.222c2.343 2.343 2.343 6.142 0 8.485l-7.07 7.071c-2.344 2.343-6.143 2.343-8.486 0-2.343-2.343-2.343-6.142 0-8.485l7.07-7.071c2.344-2.343 6.143-2.343 8.486 0zm-5.656 11.313L8.465 9.878l-2.829 2.83c-1.562 1.561-1.562 4.094 0 5.656 1.562 1.562 4.095 1.562 5.657 0l2.829-2.83zm4.242-9.899c-1.562-1.562-4.095-1.562-5.657 0L9.88 8.464l5.657 5.657 2.828-2.828c1.562-1.562 1.562-4.095 0-5.657z"/></symbol><symbol viewBox="0 0 24 24" id="medicine-bottle-line"><path fill="none" d="M0 0H24V24H0z"/><path d="M19 2v2h-2v3c1.657 0 3 1.343 3 3v11c0 .552-.448 1-1 1H5c-.552 0-1-.448-1-1V10c0-1.657 1.343-3 3-3V4H5V2h14zm-2 7H7c-.552 0-1 .448-1 1v10h12V10c0-.552-.448-1-1-1zm-4 2v2h2v2h-2.001L13 17h-2l-.001-2H9v-2h2v-2h2zm2-7H9v3h6V4z"/></symbol><symbol viewBox="0 0 24 24" id="flask-line"><path fill="none" d="M0 0H24V24H0z"/><path d="M16 2v2h-1v3.243c0 1.158.251 2.301.736 3.352l4.282 9.276c.347.753.018 1.644-.734 1.99-.197.092-.411.139-.628.139H5.344c-.828 0-1.5-.672-1.5-1.5 0-.217.047-.432.138-.629l4.282-9.276C8.749 9.545 9 8.401 9 7.243V4H8V2h8zm-2.612 8.001h-2.776c-.104.363-.23.721-.374 1.071l-.158.361L6.125 20h11.749l-3.954-8.567c-.214-.464-.392-.943-.532-1.432zM11 7.243c0 .253-.01.506-.029.758h2.058c-.01-.121-.016-.242-.021-.364L13 7.243V4h-2v3.243z"/></symbol><symbol viewBox="0 0 24 24" id="test-tube-line"><path fill="none" d="M0 0H24V24H0z"/><path d="M17 2v2h-1v14c0 2.21-1.79 4-4 4s-4-1.79-4-4V4H7V2h10zm-3 8h-4v8c0 1.105.895 2 2 2s2-.895 2-2v-8zm-1 5c.552 0 1 .448 1 1s-.448 1-1 1-1-.448-1-1 .448-1 1-1zm-2-3c.552 0 1 .448 1 1s-.448 1-1 1-1-.448-1-1 .448-1 1-1zm3-8h-4v4h4V4z"/></symbol><symbol viewBox="0 0 24 24" id="microscope-line"><path fill="none" d="M0 0H24V24H0z"/><path d="M13.196 2.268l3.25 5.63c.276.477.112 1.089-.366 1.365l-1.3.75 1.001 1.732-1.732 1-1-1.733-1.299.751c-.478.276-1.09.112-1.366-.366L8.546 8.215C6.494 8.837 5 10.745 5 13c0 .625.115 1.224.324 1.776C6.1 14.284 7.016 14 8 14c1.684 0 3.174.833 4.08 2.109l7.688-4.439 1 1.732-7.878 4.549c.072.338.11.69.11 1.049 0 .343-.034.677-.1 1H21v2l-17 .001c-.628-.836-1-1.875-1-3.001 0-1.007.298-1.945.81-2.73C3.293 15.295 3 14.182 3 13c0-2.995 1.881-5.551 4.527-6.55l-.393-.682c-.552-.957-.225-2.18.732-2.732l2.598-1.5c.957-.552 2.18-.225 2.732.732zM8 16c-1.657 0-3 1.343-3 3 0 .35.06.687.17 1h5.66c.11-.313.17-.65.17-1 0-1.657-1.343-3-3-3zm3.464-12.732l-2.598 1.5 2.75 4.763 2.598-1.5-2.75-4.763z"/></symbol><symbol viewBox="0 0 24 24" id="hand-sanitizer-line"><path fill="none" d="M0 0H24V24H0z"/><path d="M17 2v2l-4-.001V6h3v2c2.21 0 4 1.79 4 4v8c0 1.105-.895 2-2 2H6c-1.105 0-2-.895-2-2v-8c0-2.21 1.79-4 4-4V6h3V3.999L7.5 4c-.63 0-1.37.49-2.2 1.6L3.7 4.4C4.87 2.84 6.13 2 7.5 2H17zm-1 8H8c-1.105 0-2 .895-2 2v8h12v-8c0-1.105-.895-2-2-2zm-3 2v2h2v2h-2.001L13 18h-2l-.001-2H9v-2h2v-2h2z"/></symbol><symbol viewBox="0 0 24 24" id="mental-health-line"><path fill="none" d="M0 0H24V24H0z"/><path d="M11 2c4.068 0 7.426 3.036 7.934 6.965l2.25 3.539c.148.233.118.58-.225.728L19 14.07V17c0 1.105-.895 2-2 2h-1.999L15 22H6v-3.694c0-1.18-.436-2.297-1.244-3.305C3.657 13.631 3 11.892 3 10c0-4.418 3.582-8 8-8zm0 2c-3.314 0-6 2.686-6 6 0 1.385.468 2.693 1.316 3.75C7.41 15.114 8 16.667 8 18.306V20h5l.002-3H17v-4.248l1.55-.664-1.543-2.425-.057-.442C16.566 6.251 14.024 4 11 4zm-.53 3.763l.53.53.53-.53c.684-.684 1.792-.684 2.475 0 .684.683.684 1.791 0 2.474L11 13.243l-3.005-3.006c-.684-.683-.684-1.791 0-2.474.683-.684 1.791-.684 2.475 0z"/></symbol><symbol viewBox="0 0 24 24" id="dossier-fill"><path fill="none" d="M0 0H24V24H0z"/><path d="M17 2v2h3c.552 0 1 .448 1 1v16c0 .552-.448 1-1 1H4c-.552 0-1-.448-1-1V5c0-.552.448-1 1-1h3V2h10zm-4 9h-2v2H9v2h1.999L11 17h2l-.001-2H15v-2h-2v-2zm2-7H9v2h6V4z"/></symbol><symbol viewBox="0 0 24 24" id="health-book-fill"><path fill="none" d="M0 0H24V24H0z"/><path d="M20 2c.552 0 1 .448 1 1v18c0 .552-.448 1-1 1H6c-.552 0-1-.448-1-1v-2H3v-2h2v-2H3v-2h2v-2H3V9h2V7H3V5h2V3c0-.552.448-1 1-1h14zm-6 6h-2v3H9v2h2.999L12 16h2l-.001-3H17v-2h-3V8z"/></symbol><symbol viewBox="0 0 24 24" id="first-aid-kit-fill"><path fill="none" d="M0 0H24V24H0z"/><path d="M16 1c.552 0 1 .448 1 1v3h4c.552 0 1 .448 1 1v14c0 .552-.448 1-1 1H3c-.552 0-1-.448-1-1V6c0-.552.448-1 1-1h4V2c0-.552.448-1 1-1h8zm-3 8h-2v3H8v2h2.999L11 17h2l-.001-3H16v-2h-3V9zm2-6H9v2h6V3z"/></symbol><symbol viewBox="0 0 24 24" id="capsule-fill"><path fill="none" d="M0 0H24V24H0z"/><path d="M19.778 4.222c2.343 2.343 2.343 6.142 0 8.485l-2.122 2.12-4.949 4.951c-2.343 2.343-6.142 2.343-8.485 0-2.343-2.343-2.343-6.142 0-8.485l7.07-7.071c2.344-2.343 6.143-2.343 8.486 0zm-4.95 10.606L9.172 9.172l-3.536 3.535c-1.562 1.562-1.562 4.095 0 5.657 1.562 1.562 4.095 1.562 5.657 0l3.535-3.536z"/></symbol><symbol viewBox="0 0 24 24" id="medicine-bottle-fill"><path fill="none" d="M0 0H24V24H0z"/><path d="M17 5v2c1.657 0 3 1.343 3 3v11c0 .552-.448 1-1 1H5c-.552 0-1-.448-1-1V10c0-1.657 1.343-3 3-3V5h10zm-4 6h-2v2H9v2h1.999L11 17h2l-.001-2H15v-2h-2v-2zm6-9v2H5V2h14z"/></symbol><symbol viewBox="0 0 24 24" id="flask-fill"><path fill="none" d="M0 0H24V24H0z"/><path d="M16 2v2h-1v3.243c0 1.158.251 2.301.736 3.352l4.282 9.276c.347.753.018 1.644-.734 1.99-.197.092-.411.139-.628.139H5.344c-.828 0-1.5-.672-1.5-1.5 0-.217.047-.432.138-.629l4.282-9.276C8.749 9.545 9 8.401 9 7.243V4H8V2h8zm-3 2h-2v4h2V4z"/></symbol><symbol viewBox="0 0 24 24" id="test-tube-fill"><path fill="none" d="M0 0H24V24H0z"/><path d="M17 2v2h-1v14c0 2.21-1.79 4-4 4s-4-1.79-4-4V4H7V2h10zm-4 13c-.552 0-1 .448-1 1s.448 1 1 1 1-.448 1-1-.448-1-1-1zm-2-3c-.552 0-1 .448-1 1s.448 1 1 1 1-.448 1-1-.448-1-1-1zm3-8h-4v4h4V4z"/></symbol><symbol viewBox="0 0 24 24" id="microscope-fill"><path fill="none" d="M0 0H24V24H0z"/><path d="M13.196 2.268l3.25 5.63c.276.477.112 1.089-.366 1.365l-1.3.75 1.001 1.732-1.732 1-1-1.733-1.299.751c-.478.276-1.09.112-1.366-.366L8.546 8.215C6.494 8.837 5 10.745 5 13c0 .625.115 1.224.324 1.776C6.1 14.284 7.016 14 8 14c1.684 0 3.174.833 4.08 2.109l7.688-4.439 1 1.732-7.878 4.549c.072.338.11.69.11 1.049 0 .343-.034.677-.1 1H21v2l-17 .001c-.628-.836-1-1.875-1-3.001 0-1.007.298-1.945.81-2.73C3.293 15.295 3 14.182 3 13c0-2.995 1.881-5.551 4.527-6.55l-.393-.682c-.552-.957-.225-2.18.732-2.732l2.598-1.5c.957-.552 2.18-.225 2.732.732z"/></symbol><symbol viewBox="0 0 24 24" id="hand-sanitizer-fill"><path fill="none" d="M0 0H24V24H0z"/><path d="M17 2v2l-4-.001V6h3v2c2.21 0 4 1.79 4 4v8c0 1.105-.895 2-2 2H6c-1.105 0-2-.895-2-2v-8c0-2.21 1.79-4 4-4V6h3V3.999L7.5 4c-.63 0-1.37.49-2.2 1.6L3.7 4.4C4.87 2.84 6.13 2 7.5 2H17zm-4 10h-2v2H9v2h1.999L11 18h2l-.001-2H15v-2h-2v-2z"/></symbol><symbol viewBox="0 0 24 24" id="mental-health-fill"><path fill="none" d="M0 0H24V24H0z"/><path d="M11 2c4.068 0 7.426 3.036 7.934 6.965l2.25 3.539c.148.233.118.58-.225.728L19 14.07V17c0 1.105-.895 2-2 2h-1.999L15 22H6v-3.694c0-1.18-.436-2.297-1.244-3.305C3.657 13.631 3 11.892 3 10c0-4.418 3.582-8 8-8zm-.53 5.763c-.684-.684-1.792-.684-2.475 0-.684.683-.684 1.791 0 2.474L11 13.243l3.005-3.006c.684-.683.684-1.791 0-2.474-.683-.684-1.791-.684-2.475 0l-.53.53-.53-.53z"/></symbol><symbol viewBox="0 0 24 24" id="psychotherapy-line"><path fill="none" d="M0 0H24V24H0z"/><path d="M11 2c4.068 0 7.426 3.036 7.934 6.965l2.25 3.539c.148.233.118.58-.225.728L19 14.07V17c0 1.105-.895 2-2 2h-1.999L15 22H6v-3.694c0-1.18-.436-2.297-1.244-3.305C3.657 13.631 3 11.892 3 10c0-4.418 3.582-8 8-8zm0 2c-3.314 0-6 2.686-6 6 0 1.385.468 2.693 1.316 3.75C7.41 15.114 8 16.667 8 18.306V20h5l.002-3H17v-4.248l1.55-.664-1.543-2.425-.057-.442C16.566 6.251 14.024 4 11 4zm0 3c.552 0 1 .448 1 1v1h1c.552 0 1 .448 1 1s-.448 1-1 1h-1v1c0 .552-.448 1-1 1s-1-.448-1-1v-1.001L9 11c-.552 0-1-.448-1-1s.448-1 1-1l1-.001V8c0-.552.448-1 1-1z"/></symbol><symbol viewBox="0 0 24 24" id="stethoscope-line"><path fill="none" d="M0 0H24V24H0z"/><path d="M8 3v2H6v4c0 2.21 1.79 4 4 4s4-1.79 4-4V5h-2V3h3c.552 0 1 .448 1 1v5c0 2.973-2.162 5.44-5 5.917V16.5c0 1.933 1.567 3.5 3.5 3.5 1.497 0 2.775-.94 3.275-2.263C16.728 17.27 16 16.22 16 15c0-1.657 1.343-3 3-3s3 1.343 3 3c0 1.371-.92 2.527-2.176 2.885C19.21 20.252 17.059 22 14.5 22 11.462 22 9 19.538 9 16.5v-1.583C6.162 14.441 4 11.973 4 9V4c0-.552.448-1 1-1h3zm11 11c-.552 0-1 .448-1 1s.448 1 1 1 1-.448 1-1-.448-1-1-1z"/></symbol><symbol viewBox="0 0 24 24" id="syringe-line"><path fill="none" d="M0 0H24V24H0z"/><path d="M21.678 7.98l-1.415 1.413-2.12-2.12-2.122 2.12 3.535 3.536-1.414 1.414-.707-.707L11.071 20H5.414l-2.121 2.121-1.414-1.414L4 18.586v-5.657l6.364-6.364-.707-.707 1.414-1.414 3.536 3.535 2.12-2.121-2.12-2.121 1.414-1.415 5.657 5.657zm-5.657 4.242l-4.243-4.243-1.414 1.414 2.121 2.122-1.414 1.414-2.121-2.121-1.414 1.414 2.12 2.121-1.413 1.414-2.122-2.121-.121.121V18h4.243l5.778-5.778z"/></symbol><symbol viewBox="0 0 24 24" id="thermometer-line"><path fill="none" d="M0 0H24V24H0z"/><path d="M20.556 3.444c1.562 1.562 1.562 4.094 0 5.657l-8.2 8.2c-.642.642-1.484 1.047-2.387 1.147l-3.378.374-2.298 2.3c-.39.39-1.024.39-1.414 0-.39-.391-.39-1.024 0-1.415l2.298-2.299.375-3.377c.1-.903.505-1.745 1.147-2.387l8.2-8.2c1.563-1.562 4.095-1.562 5.657 0zm-4.242 1.414l-8.2 8.2c-.322.321-.524.742-.574 1.193l-.276 2.485 2.485-.276c.45-.05.872-.252 1.193-.573l.422-.423L9.95 14.05l1.414-1.414 1.414 1.414 1.414-1.414-1.414-1.414 1.414-1.414 1.415 1.414 1.414-1.415-1.414-1.414L17.02 6.98l1.414 1.414.707-.707c.781-.78.781-2.047 0-2.828-.78-.781-2.047-.781-2.828 0z"/></symbol><symbol viewBox="0 0 24 24" id="infrared-thermometer-line"><path fill="none" d="M0 0H24V24H0z"/><path d="M21 2v9h-3.001L18 12c0 2.21-1.79 4-4 4h-1.379l-.613 3.111.911 1.321c.314.455.2 1.078-.255 1.391-.167.115-.365.177-.568.177H3l2.313-10.024L3 11l4-9h14zm-2 2H8.3L5.655 9.95l1.985.837L5.514 20h4.678l-.309-.448L11.96 9H19V4zm-3.001 7h-2.394l-.591 3H14c1.105 0 2-.895 2-2l-.001-1z"/></symbol><symbol viewBox="0 0 24 24" id="surgical-mask-line"><path fill="none" d="M0 0H24V24H0z"/><path d="M12.485 3.121l7.758 1.94c.445.11.757.51.757.97V7h1c1.1 0 2 .9 2 2v3c0 1.657-1.343 3-3 3h-.421c-.535 1.35-1.552 2.486-2.896 3.158l-4.789 2.395c-.563.281-1.225.281-1.788 0l-4.79-2.395C4.974 17.486 3.957 16.35 3.422 15H3c-1.657 0-3-1.343-3-3V9c0-1.105.895-2 2-2h1v-.97c0-.458.312-.858.757-.97l7.758-1.939c.318-.08.652-.08.97 0zM12 5.061l-7 1.75v5.98c0 1.516.856 2.9 2.211 3.579L12 18.764l4.789-2.394C18.144 15.692 19 14.307 19 12.792v-5.98l-7-1.75zM3 9H2v3c0 .552.448 1 1 1V9zm19 0h-1v4c.552 0 1-.448 1-1V9z"/></symbol><symbol viewBox="0 0 24 24" id="virus-line"><path fill="none" d="M0 0H24V24H0z"/><path d="M13.717 1.947l3.734 1.434-.717 1.867-.934-.359-.746 1.945c.779.462 1.444 1.094 1.945 1.846l1.903-.847-.407-.914 1.827-.813 1.627 3.654-1.827.813-.407-.913-1.902.847c.122.477.187.978.187 1.493 0 .406-.04.803-.117 1.187l1.944.746.358-.933 1.868.717-1.434 3.734-1.867-.717.358-.933-1.944-.747c-.462.779-1.094 1.444-1.846 1.945l.847 1.903.914-.407.813 1.827-3.654 1.627-.813-1.827.913-.407-.847-1.902c-.477.122-.978.187-1.493.187-.407 0-.804-.04-1.188-.118l-.746 1.945.934.358-.717 1.868-3.734-1.434.717-1.867.932.358.748-1.944C8.167 16.704 7.502 16.072 7 15.32l-1.903.847.407.914-1.827.813-1.627-3.654 1.827-.813.406.914 1.903-.848C6.065 13.016 6 12.515 6 12c0-.406.04-.803.117-1.187l-1.945-.746-.357.933-1.868-.717L3.381 6.55l1.867.717-.359.933 1.945.747C7.296 8.167 7.928 7.502 8.68 7l-.847-1.903-.914.407-.813-1.827L9.76 2.051l.813 1.827-.913.407.847 1.902C10.984 6.065 11.485 6 12 6c.406 0 .803.04 1.187.117l.745-1.945L13 3.815l.717-1.868zM12 8c-2.21 0-4 1.79-4 4s1.79 4 4 4 4-1.79 4-4-1.79-4-4-4zm-.5 4.866c.478.276.642.888.366 1.366-.276.478-.888.642-1.366.366-.478-.276-.642-.888-.366-1.366.276-.478.888-.642 1.366-.366zM14 11c.552 0 1 .448 1 1s-.448 1-1 1-1-.448-1-1 .448-1 1-1zm-2.134-1.232c.276.478.112 1.09-.366 1.366s-1.09.112-1.366-.366-.112-1.09.366-1.366 1.09-.112 1.366.366z"/></symbol><symbol viewBox="0 0 24 24" id="lungs-line"><path fill="none" d="M0 0H24V24H0z"/><path d="M22.001 17c-.001 4-.001 4-4 4-4 0-5-3-5-6 0-.378-.018-.918-.026-1.55l2.023 1.169L15 15c0 2.776.816 4 3 4 1.14 0 1.61-.007 1.963-.038.03-.351.037-.822.037-1.962 0-3.205-.703-6.033-1.835-7.9-.838-1.382-1.613-1.843-2.032-1.703-.293.098-.605.65-.831 1.623l-1.79-1.033c.369-1.197.982-2.151 1.988-2.487 3-1 6.503 4 6.5 11.5zM8.5 5.5c1.007.336 1.62 1.29 1.989 2.487L8.699 9.02c-.226-.973-.539-1.525-.831-1.623-.42-.14-1.195.32-2.032 1.702C4.703 10.967 4 13.795 4 17c0 1.14.007 1.61.038 1.962.351.031.822.038 1.962.038 2.184 0 3-1.224 3-4l.004-.382 2.023-1.168c-.01.633-.027 1.172-.027 1.55 0 3-1 6-5 6s-4 0-4-4C2 9.5 5.5 4.5 8.5 5.5zM13 2v7.422l4.696 2.712-1 1.732L12 11.155l-4.696 2.711-1-1.732L11 9.422V2h2z"/></symbol><symbol viewBox="0 0 24 24" id="rest-time-line"><path fill="none" d="M0 0H24V24H0z"/><path d="M11 6v2c-3.314 0-6 2.686-6 6s2.686 6 6 6c3.238 0 5.878-2.566 5.996-5.775L17 14h2c0 4.418-3.582 8-8 8s-8-3.582-8-8c0-4.335 3.58-8 8-8zm10-4v2l-5.327 6H21v2h-8v-2l5.326-6H13V2h8z"/></symbol><symbol viewBox="0 0 24 24" id="zzz-line"><path fill="none" d="M0 0H24V24H0z"/><path d="M11 11v2l-5.327 6H11v2H3v-2l5.326-6H3v-2h8zm10-8v2l-5.327 6H21v2h-8v-2l5.326-6H13V3h8z"/></symbol><symbol viewBox="0 0 24 24" id="psychotherapy-fill"><path fill="none" d="M0 0H24V24H0z"/><path d="M11 2c4.068 0 7.426 3.036 7.934 6.965l2.25 3.539c.148.233.118.58-.225.728L19 14.07V17c0 1.105-.895 2-2 2h-1.999L15 22H6v-3.694c0-1.18-.436-2.297-1.244-3.305C3.657 13.631 3 11.892 3 10c0-4.418 3.582-8 8-8zm0 5c-.552 0-1 .448-1 1v.999L9 9c-.552 0-1 .448-1 1s.448 1 1 1l1-.001V12c0 .552.448 1 1 1s1-.448 1-1v-1h1c.552 0 1-.448 1-1s-.448-1-1-1h-1V8c0-.552-.448-1-1-1z"/></symbol><symbol viewBox="0 0 24 24" id="stethoscope-fill"><path fill="none" d="M0 0H24V24H0z"/><path d="M8 3v2H6v4c0 2.21 1.79 4 4 4s4-1.79 4-4V5h-2V3h3c.552 0 1 .448 1 1v5c0 2.973-2.162 5.44-5 5.917V16.5c0 1.933 1.567 3.5 3.5 3.5 1.497 0 2.775-.94 3.275-2.263C16.728 17.27 16 16.22 16 15c0-1.657 1.343-3 3-3s3 1.343 3 3c0 1.371-.92 2.527-2.176 2.885C19.21 20.252 17.059 22 14.5 22 11.462 22 9 19.538 9 16.5v-1.583C6.162 14.441 4 11.973 4 9V4c0-.552.448-1 1-1h3z"/></symbol><symbol viewBox="0 0 24 24" id="syringe-fill"><path fill="none" d="M0 0H24V24H0z"/><path d="M21.678 7.98l-1.415 1.413-2.12-2.12-2.122 2.12 3.535 3.536-1.414 1.414-.707-.707L11.071 20H5.414l-2.121 2.121-1.414-1.414L4 18.586v-5.657l6.364-6.364-.707-.707 1.414-1.414 3.536 3.535 2.12-2.121-2.12-2.121 1.414-1.415 5.657 5.657zM9.657 14.342l-2.829-2.828-1.414 1.414 2.829 2.828 1.414-1.414zm2.828-2.828L9.657 8.686l-1.414 1.415 2.828 2.828 1.414-1.414z"/></symbol><symbol viewBox="0 0 24 24" id="thermometer-fill"><path fill="none" d="M0 0H24V24H0z"/><path d="M20.556 3.444c1.562 1.562 1.562 4.094 0 5.657l-8.2 8.2c-.642.642-1.484 1.047-2.387 1.147l-3.378.374-2.298 2.3c-.39.39-1.024.39-1.414 0-.39-.391-.39-1.024 0-1.415l2.298-2.299.375-3.377c.1-.903.505-1.745 1.147-2.387l8.2-8.2c1.563-1.562 4.095-1.562 5.657 0zm-9.192 9.192L9.95 14.05l2.121 2.122 1.414-1.415-2.121-2.121zm2.828-2.828l-1.414 1.414 2.121 2.121 1.415-1.414-2.122-2.121zm2.829-2.829l-1.414 1.414 2.12 2.122L19.143 9.1l-2.121-2.122z"/></symbol><symbol viewBox="0 0 24 24" id="infrared-thermometer-fill"><path fill="none" d="M0 0H24V24H0z"/><path d="M21 2v9h-3.001L18 12c0 2.21-1.79 4-4 4h-1.379l-.613 3.111.911 1.321c.314.455.2 1.078-.255 1.391-.167.115-.365.177-.568.177H3l2.313-10.024L3 11l4-9h14zm-5.001 9h-2.394l-.591 3H14c1.105 0 2-.895 2-2l-.001-1z"/></symbol><symbol viewBox="0 0 24 24" id="surgical-mask-fill"><path fill="none" d="M0 0H24V24H0z"/><path d="M12.485 3.121l7.758 1.94c.445.11.757.51.757.97V7h1c1.1 0 2 .9 2 2v3c0 1.657-1.343 3-3 3h-.421c-.535 1.35-1.552 2.486-2.896 3.158l-4.789 2.395c-.563.281-1.225.281-1.788 0l-4.79-2.395C4.974 17.486 3.957 16.35 3.422 15H3c-1.657 0-3-1.343-3-3V9c0-1.105.895-2 2-2h1v-.97c0-.458.312-.858.757-.97l7.758-1.939c.318-.08.652-.08.97 0zM3 9H2v3c0 .552.448 1 1 1V9zm19 0h-1v4c.552 0 1-.448 1-1V9z"/></symbol><symbol viewBox="0 0 24 24" id="virus-fill"><path fill="none" d="M0 0H24V24H0z"/><path d="M13.717 1.947l3.734 1.434-.717 1.867-.934-.359-.746 1.945c.779.462 1.444 1.094 1.945 1.846l1.903-.847-.407-.914 1.827-.813 1.627 3.654-1.827.813-.407-.913-1.902.847c.122.477.187.978.187 1.493 0 .406-.04.803-.117 1.187l1.944.746.358-.933 1.868.717-1.434 3.734-1.867-.717.358-.933-1.944-.747c-.462.779-1.094 1.444-1.846 1.945l.847 1.903.914-.407.813 1.827-3.654 1.627-.813-1.827.913-.407-.847-1.902c-.477.122-.978.187-1.493.187-.407 0-.804-.04-1.188-.118l-.746 1.945.934.358-.717 1.868-3.734-1.434.717-1.867.932.358.748-1.944C8.167 16.704 7.502 16.072 7 15.32l-1.903.847.407.914-1.827.813-1.627-3.654 1.827-.813.406.914 1.903-.848C6.065 13.016 6 12.515 6 12c0-.406.04-.803.117-1.187l-1.945-.746-.357.933-1.868-.717L3.381 6.55l1.867.717-.359.933 1.945.747C7.296 8.167 7.928 7.502 8.68 7l-.847-1.903-.914.407-.813-1.827L9.76 2.051l.813 1.827-.913.407.847 1.902C10.984 6.065 11.485 6 12 6c.406 0 .803.04 1.187.117l.745-1.945L13 3.815l.717-1.868zm-3.583 11.285c-.276.478-.112 1.09.366 1.366s1.09.112 1.366-.366.112-1.09-.366-1.366-1.09-.112-1.366.366zM14 11c-.552 0-1 .448-1 1s.448 1 1 1 1-.448 1-1-.448-1-1-1zm-3.5-1.598c-.478.276-.642.888-.366 1.366.276.478.888.642 1.366.366.478-.276.642-.888.366-1.366-.276-.478-.888-.642-1.366-.366z"/></symbol><symbol viewBox="0 0 24 24" id="lungs-fill"><path fill="none" d="M0 0H24V24H0z"/><path d="M8.5 5.5c1.412.47 2.048 2.159 2.327 4.023l-4.523 2.611 1 1.732 3.71-2.141C11.06 13.079 11 14.308 11 15c0 3-1 6-5 6s-4 0-4-4C2 9.5 5.5 4.5 8.5 5.5zM22.001 17v.436c-.005 3.564-.15 3.564-4 3.564-4 0-5-3-5-6 0-.691-.06-1.92-.014-3.274l3.71 2.14 1-1.732-4.523-2.61c.279-1.865.915-3.553 2.327-4.024 3-1 6.5 4 6.5 11.5zM13 2v9h-2V2h2z"/></symbol><symbol viewBox="0 0 24 24" id="rest-time-fill"><path fill="none" d="M0 0H24V24H0z"/><path d="M11 6v8h8c0 4.418-3.582 8-8 8s-8-3.582-8-8c0-4.335 3.58-8 8-8zm10-4v2l-5.327 6H21v2h-8v-2l5.326-6H13V2h8z"/></symbol><symbol viewBox="0 0 24 24" id="zzz-fill"><path fill="none" d="M0 0H24V24H0z"/><path d="M11 11v2l-5.327 6H11v2H3v-2l5.326-6H3v-2h8zm10-8v2l-5.327 6H21v2h-8v-2l5.326-6H13V3h8z"/></symbol></svg>